<svg id="Layer_1" data-name="Layer 1" xmlns="http://www.w3.org/2000/svg" viewBox="0 0 24 24">
  <title>gear</title>
  <path d="M24,13.6V10.4c-1.7-.6-2.7-.8-3.2-2h0c-.5-1.3.1-2.2.8-3.7L19.3,2.4c-1.5.7-2.4,1.3-3.7.8h0c-1.2-.5-1.4-1.6-2-3.2H10.4c-.6,1.6-.8,2.7-2,3.2h0c-1.3.5-2.2-.1-3.7-.8L2.4,4.7c.7,1.5,1.3,2.4.8,3.7S1.6,9.8,0,10.4v3.2c1.6.6,2.7.8,3.2,2s-.1,2.2-.8,3.7l2.3,2.3c1.5-.7,2.4-1.3,3.7-.8h0c1.2.5,1.4,1.6,2,3.2h3.2c.6-1.6.8-2.7,2-3.2h0c1.3-.5,2.2.1,3.7.8l2.3-2.3c-.7-1.5-1.3-2.4-.8-3.7S22.4,14.2,24,13.6ZM12,16a4,4,0,1,1,4-4A4,4,0,0,1,12,16Z" transform="translate(0 0)" fill="#482f2f"/>
</svg>
