<svg id="Layer_1" data-name="Layer 1" xmlns="http://www.w3.org/2000/svg" viewBox="0 0 24 24">
  <title>globe</title>
  <path d="M12,0A12,12,0,1,0,24,12,12,12,0,0,0,12,0Zm1,16.1V13h3a18.8,18.8,0,0,1-.5,3.3Zm2,2.1a13.3,13.3,0,0,1-2,3.5V18.1ZM13,11V8l2.5-.2A16.4,16.4,0,0,1,16,11Zm0-5V2.3a13.3,13.3,0,0,1,2,3.5Zm2.7-3.3A9.1,9.1,0,0,1,19,4.9l-2,.6A23.9,23.9,0,0,0,15.7,2.7ZM8.5,16.3A18.8,18.8,0,0,1,8,13h3v3.1ZM11,18.1v3.6a13.3,13.3,0,0,1-2-3.5ZM8,11a16.4,16.4,0,0,1,.5-3.2L11,8v3ZM9,5.8a13.3,13.3,0,0,1,2-3.5V6ZM7,5.5,5,4.9A9.1,9.1,0,0,1,8.3,2.7,23.9,23.9,0,0,0,7,5.5ZM6.5,7.4A13.6,13.6,0,0,0,6,11H2.1A8.7,8.7,0,0,1,3.7,6.5,18.4,18.4,0,0,0,6.5,7.4Zm0,9.3a13.1,13.1,0,0,0-2.8.9A9.4,9.4,0,0,1,2.1,13H6A15,15,0,0,0,6.5,16.7ZM7,18.6c.4.9.8,1.8,1.3,2.7A11.5,11.5,0,0,1,5,19.2,7.6,7.6,0,0,1,7,18.6Zm10,0a7.6,7.6,0,0,1,2,.6,11.5,11.5,0,0,1-3.3,2.1C16.2,20.4,16.6,19.5,17,18.6Zm.5-1.9A15,15,0,0,0,18,13h3.9a9.4,9.4,0,0,1-1.6,4.6A13.1,13.1,0,0,0,17.5,16.7ZM18,11a13.6,13.6,0,0,0-.5-3.6,18.4,18.4,0,0,0,2.8-.9A8.7,8.7,0,0,1,21.9,11Z" fill="#482f2f"/>
</svg>
