<svg id="Layer_1" data-name="Layer 1" xmlns="http://www.w3.org/2000/svg" viewBox="0 0 380.5 66.6">
  <title>logo</title>
  <g>
    <path d="M25.3,82.2H10.6v-64H25.3ZM40,18.2H54.8v64H40V54.3H27.8V43.7H40Z" transform="translate(-10.6 -16.8)" fill="#433"/>
    <path d="M94.6,18.2l16.3,64H95.4L92.5,68.8H79.7l2.1-10.7h8.5l-5-26L74,82.2H59.4l16.3-64Z" transform="translate(-10.6 -16.8)" fill="#433"/>
    <path d="M129,18.2v64H115.2v-64Zm17.7,59.7-16-32.4V23.3l16,32.6Zm15.7-59.7v64h-14v-64Z" transform="translate(-10.6 -16.8)" fill="#433"/>
    <path d="M170,34.3q0-17.4,21-17.4V27.3c-4,.5-6,2.6-6,6.5v33c0,3.8,2,5.9,6,6.4V83.3c-7.3,0-12.7-1.5-16-4.5s-5-7.7-5-14.2Zm23.3,38.9c4.7-.1,7-2.3,7-6.4V58.1c0-2.7-1.2-4.1-3.4-4.1h-4.8V44.4h22.5V82.2h-6.8l-3.2-4.6c-2.3,3.8-5.8,5.7-10.6,5.7h-.7Zm0-56.4q21.3,0,21.3,17.7v5.8H200.3V33.8c0-4.2-2.3-6.4-7-6.6Z" transform="translate(-10.6 -16.8)" fill="#433"/>
    <path d="M236.1,18.2v64H222.4v-64Zm13,64L237.7,46.6V18.2h4.2l11,44,10.8-44H268V47.1L256.2,82.2Zm34.4-64v64H269.7v-64Z" transform="translate(-10.6 -16.8)" fill="#433"/>
    <path d="M323.3,18.2l16.2,64H324.1l-3-13.4H308.3l2.1-10.7h8.5l-5-26L302.6,82.2H288.1l16.2-64Z" transform="translate(-10.6 -16.8)" fill="#433"/>
    <path d="M357.6,18.2v64H343.9v-64Zm17.8,59.7-16-32.4V23.3l16,32.6ZM391,18.2v64H377.1v-64Z" transform="translate(-10.6 -16.8)" fill="#433"/>
  </g>
</svg>
