<svg id="Layer_1" data-name="Layer 1" xmlns="http://www.w3.org/2000/svg" viewBox="0 0 376.6 134">
  <title>modal_red</title>
  <path d="M392.9,113.9c1.4-2.3.7-5.9.3-8.7,1.3-4.1.9-8.9-1.1-12,1.6.2.1-1.4,1.3-1.5-1.5-1.3.1-3.5-.9-4.9s-1.7-1.6-2.4-2.5c-3.4-.8-5.6.5-9.1.4-.1.1-.1.3-.2.4h0l-2.2-.2.7-.4c-.3-1.6.9-1.8-.3-3.1,1.5-2.2.8-5.7.4-8.6,1.3-4,.9-8.8-1.1-11.9,1.6.2.1-1.4,1.3-1.5-1.5-1.2.1-3.4-.9-4.9S377,53,376.3,52l-1.9-.2a13.3,13.3,0,0,0-4.9.2c.4-2.1-.1-4.7-.4-6.9,1.3-4.1.9-8.9-1.1-12.1,1.6.2.1-1.3,1.3-1.5-1.6-1.3.1-3.5-1-5S366.6,25,366,24a14.7,14.7,0,0,0-6.3.3h0l-1.5-.2h0a10.6,10.6,0,0,0-2.4-.2h-2.7a9.2,9.2,0,0,0-3.7,0,11.8,11.8,0,0,0-3.8.2,8,8,0,0,0-2.6-.2h-.1l-.2-.3a9.3,9.3,0,0,0-2.3-.2,12.7,12.7,0,0,0-3.9.1h0a10.4,10.4,0,0,0-3.5-.1c-2.4-.5-4.3.1-6.6.4h-.5l-.3-.4a16.2,16.2,0,0,0-5.4.1,12,12,0,0,0-3.3.1h-.2l-.3-.5a9.8,9.8,0,0,0-3.8-.1,12.7,12.7,0,0,0-2.8.3,11.8,11.8,0,0,0-2.6-.2c0-.1-.1-.1-.1-.2a10.6,10.6,0,0,0-3-.2H304a10.3,10.3,0,0,0-3.9-.1h-1.9a13.2,13.2,0,0,0-3.5.2h-.1a11,11,0,0,0-2.5-.2h-.5a5.5,5.5,0,0,0-1.8-.2c-2.5-.5-4.3,0-6.6.3h-.6l-.3-.4a13,13,0,0,0-4.4,0l-.2-.3a12.8,12.8,0,0,0-5.2.1h-.8l-.2-.3a11.4,11.4,0,0,0-4.1-.1h-.6a13.9,13.9,0,0,0-3.5-.1H262a8.3,8.3,0,0,0-3.1-.2,11.3,11.3,0,0,0-4.1,0,10.9,10.9,0,0,0-2.6.1l-2.7.2a11.5,11.5,0,0,0-2.6-.1.8.8,0,0,0-.2-.4,13,13,0,0,0-4.4,0h-.1c0-.1-.1-.1-.1-.2l-2.2-.3a17.5,17.5,0,0,0-4,.1h0a8.6,8.6,0,0,0-2.7-.2c-2.3-.3-4.2.4-6.5.6l-.2-.3a10.8,10.8,0,0,0-4.4,0l-.2-.3-1.4-.2a.1.1,0,0,1-.1-.1,12.9,12.9,0,0,0-5.2.1,9.7,9.7,0,0,0-3.4,0h-.4l-.3-.4a11.5,11.5,0,0,0-4.9.1,12.1,12.1,0,0,0-1.9,0h-1a15.5,15.5,0,0,0-6.1.2V19a13.7,13.7,0,0,0-2.8-.2h-1.6l-.2-.3a11,11,0,0,0-3.6-.1,12.3,12.3,0,0,0-4.3.1h-1.3a.1.1,0,0,0-.1-.1,8,8,0,0,0-2.6-.3H180a11.5,11.5,0,0,0-4.9.1l-1.9.3h-.7c0-.1-.1-.2-.2-.3a12.4,12.4,0,0,0-3.3-.1,11.8,11.8,0,0,0-4.2,0l-.2-.2a10.3,10.3,0,0,0-3.9-.1h-.6a.3.3,0,0,1-.1-.2l-2.5-.2a8.1,8.1,0,0,0-2.2,0,12.4,12.4,0,0,0-4.7,0h-.9a17.9,17.9,0,0,0-3.3.1l-1.6.2-.3-.5a11,11,0,0,0-3.6-.1h-1a13.5,13.5,0,0,0-5.7.2h-.4v-.2a9.3,9.3,0,0,0-3.7-.1l-2.5.2h-1.3c-.1-.1-.2-.2-.2-.3a9.1,9.1,0,0,0-4-.1,12.1,12.1,0,0,0-3.3,0h-.4a.1.1,0,0,1-.1-.1A8.6,8.6,0,0,0,116,16a13.2,13.2,0,0,0-4,.1,10.4,10.4,0,0,0-3.9-.1h-.6a.3.3,0,0,1-.1-.2,11.5,11.5,0,0,0-4.9.1l-1.6-.2a7.1,7.1,0,0,0-2-.2,11.9,11.9,0,0,0-3.8.1v-.2c-2.3-.5-4.1,0-6.1.3v-.2a12.2,12.2,0,0,0-5.4.1h-.6l-.2-.3a12.3,12.3,0,0,0-5.1.1,13.1,13.1,0,0,0-3.4-.1h-.8a6.5,6.5,0,0,0-1.9-.2,14.4,14.4,0,0,0-5.5.2l-1.5.2-.4-.6a11.5,11.5,0,0,0-4.5-.1v-.2a14.5,14.5,0,0,0-5.1,0h-2a15.2,15.2,0,0,0-4.3.2l-1.3-.2H45.4a8.9,8.9,0,0,0-3.2-.2l-2.8.2-.2-.3a11,11,0,0,0-2.5-.2,14,14,0,0,0-3.6.2,8.9,8.9,0,0,0-2.3,0H28.7l-.3-.4c-3.4-.7-5.6.6-9.1.5-1,1.5-.8,3.1-1.9,4.1s1.3,2.4,2.3,3.3-.3,1.3-.8,1.6a3.8,3.8,0,0,0,1.9.4c.8.4,1.2.1,1.9.4s-.1.6-.1,1c-1.9-1.3-2.6,2.3-2.6,2.3s-.6-.3-.6-.3c-.9,3.3,3.4,6.4,1.6,10.1a2.7,2.7,0,0,0,1.7.4,8.1,8.1,0,0,1-1.6,4.7c.2.7,1,1,.9,2.1s-2.7.7-3.2,3c1,.5,2,.8,1.5,2.5,2.7,1.6,5.8.3,7.9.3a6.7,6.7,0,0,0,2,.1h.3a7.2,7.2,0,0,0,2.9.3,11.5,11.5,0,0,0,3.7-.2,7.6,7.6,0,0,0,2.1.3,8.8,8.8,0,0,0,2.8,0h3.6a7,7,0,0,0,3.5.5,7.5,7.5,0,0,0,2.6-.1.1.1,0,0,1,.1.1l1.1.3h-1a18,18,0,0,0-4.7.3,15.1,15.1,0,0,0-4.3.3c-3-.5-5.2.6-8.4.5-1,1.5-.8,3.2-1.9,4.1s1.3,2.4,2.3,3.3-.3,1.3-.8,1.6c1,.6,1.4.1,2.3.5v-.2c.6.2,1,0,1.6.3a10.4,10.4,0,0,0-.3,1.2c-1.8-1.3-2.5,2.2-2.5,2.2s-.6-.3-.6-.3c-.8,3.4,3.4,6.4,1.6,10,.3.4,1,.4,1.7.5a8,8,0,0,1-1.6,4.6c.2.7,1,1,.9,2.1s-2.6.7-3.2,3h.3l-.3.5H32.9l-.5.9h-.9c-.9,1.4-.7,3-1.7,3.8s1.2,2.3,2.1,3.2-.3,1.2-.7,1.5,1.3.1,2.2.5a.6.6,0,0,1,.5-.8,1.8,1.8,0,0,1,.9.2A.7.7,0,0,1,35,94h.6a6.7,6.7,0,0,0-.9,1.9l-.4.5c-1.5-.6-2.1,2.3-2.1,2.3l-.5-.3c-.9,3.2,3.1,6.1,1.5,9.6a2.4,2.4,0,0,0,1.6.4,7.2,7.2,0,0,1-1.6,4.4c.3.7,1,1,.9,2s-2.5.7-3,2.9c.9.4,1.9.7,1.4,2.3a6.3,6.3,0,0,0,3.8.7c2,.2,4-.5,5.5-.5a.1.1,0,0,0,.1-.1l1.4-.2a2.1,2.1,0,0,0,.4-.6h1l.2-.2a9.9,9.9,0,0,1,2.9-.3l.3-.6c1.5-.1,3-.5,4.1-.5l.3-.4h1.2l.4-.6h1l.4-.6h1l.3-.4H58c0-.1.1-.1.1-.2,1.7-.1,3.2-.5,4.5-.5a.3.3,0,0,0,.1-.2,14,14,0,0,0,4.1-.2H68a3.2,3.2,0,0,1-1,1.9c.1,1.5,1.2,2.3,2.2,3.2s-.3,1.3-.8,1.6c1,.5,1.4,0,2.2.5s.1-.4.1-.6a3.9,3.9,0,0,1,1.4.3h.2a4.7,4.7,0,0,0-.4,1.4h-.1c-1.7-1-2.4,2.2-2.4,2.2l-.5-.3c-.8,3.2,3.2,6.1,1.5,9.6.3.4,1,.4,1.7.4s-.6,3.5-1.6,4.5,1,1,.9,2-2.6.7-3.1,2.9c.9.4,1.9.7,1.4,2.3a5.7,5.7,0,0,0,2.2.7c1.7.7,3.6.4,5.2.2s5-.3,6.7-.3h.9l1.5.3a11,11,0,0,0,5.1-.1,9.7,9.7,0,0,0,3.8,0l2.4-.3h1.9l2.2-.2h.6c2.3.5,4.7-.3,6.4-.3,0-.1.1-.1.1-.2h.2a7.9,7.9,0,0,0,4.3.3,12.1,12.1,0,0,0,4.7-.3c2.3.4,4.5-.4,6.2-.4h1.5a19,19,0,0,0,2.5-.3,6.5,6.5,0,0,0,2.4.2c2,.3,3.9-.3,5.5-.4a6.9,6.9,0,0,0,3.2.1l2.7-.2h.5c2,.4,4.2-.2,5.8-.3a13.6,13.6,0,0,0,2.9-.3h2c2.3.5,4.8-.4,6.5-.3V143l1.8-.2h.9a10.2,10.2,0,0,0,3.9,0c2.6.9,5.4-.2,7.3-.2l.2-.2h.1c2.1.8,4.4.2,6.3,0a15.8,15.8,0,0,0,3.8-.3h3.5c2.1,1,4.4.5,6.3.2h1.4l1-.2c2.1.5,4.2,0,5.9-.2s5.2-.2,7-.2c.1-.1.2-.2.2-.3h2.4l1.7.2a10.7,10.7,0,0,0,4,0c2.1.1,4.1-.5,5.7-.5s.1-.3.2-.4h1.4a9.4,9.4,0,0,0,2.9,0H230a15.8,15.8,0,0,0,3.8-.3,9.4,9.4,0,0,0,2.9,0,10.8,10.8,0,0,0,3.1.1c1.8-.1,3.5-.6,4.9-.6h1.4a16.9,16.9,0,0,0,5.1-.3c2.1.2,4.3-.5,5.8-.5s.1-.1.1-.2c2.3,1.1,4.8.4,6.8.2a21.3,21.3,0,0,0,3.7-.3l2.4-.3h1.3a10.3,10.3,0,0,0,5.5.1H280a10.1,10.1,0,0,0,3,.1c2.2.5,4.5-.2,6.3-.3a9.5,9.5,0,0,0,2.9.1l2-.2a13.9,13.9,0,0,0,4.6-.3l2-.2,2.3-.2H308a10.3,10.3,0,0,0,3.5-.1h.3c2.5.8,5.2-.2,7.1-.2l.2-.3h.1a9.2,9.2,0,0,0,4.9.3h.8c2.3.5,4.7-.4,6.4-.4h0c1.7,0,3.3-.5,4.6-.5h0a13.1,13.1,0,0,0,4-.2,7.1,7.1,0,0,0,2.5.2,12.2,12.2,0,0,0,3.3-.1,20,20,0,0,0,3.5-.2,12.9,12.9,0,0,0,4.8-.1c1.9.1,3.7-.5,5.1-.5a11.3,11.3,0,0,0,1.5-2.9c.9.3.9-.4,1.5-.5s.9-1.8-.3-3.1a7.1,7.1,0,0,0,.8-4.7h1.3l.2-.3h4.2a10.3,10.3,0,0,0,4.3-.2c1.9.1,3.8-.5,5.3-.5v-.2l2.9-.3.2-.3h2.1c2.5.7,5.1-.3,7-.3a7.1,7.1,0,0,0,1.4-2.9c.9.3,1-.3,1.5-.4S394,115.1,392.9,113.9ZM54.4,51h-.1l2.8-.2c2,.6,4.1,0,5.7-.2h1.5a13.1,13.1,0,0,1-3.5.3.4.4,0,0,0-.1.3h-.9a10.7,10.7,0,0,0-4.4.2h-.7ZM377.9,85h0ZM38,61.2h0Z" transform="translate(-17.4 -13)" fill="#61000c" fill-rule="evenodd"/>
</svg>
